HIERARCHY
ROOT root
{
	OFFSET 0.000000 0.000000 0.000000
	CHANNELS 6 Xposition Yposition Zposition Zrotation Yrotation Xrotation
	JOINT lhip
	{
		OFFSET 0.058581 -0.082280 -0.017664
		CHANNELS 3 Zrotation Yrotation Xrotation
		JOINT lknee
		{
			OFFSET 0.043451 -0.386469 0.008037
			CHANNELS 3 Zrotation Yrotation Xrotation
			JOINT lankle
			{
				OFFSET -0.014790 -0.426874 -0.037428
				CHANNELS 3 Zrotation Yrotation Xrotation
				JOINT ltoe
				{
					OFFSET 0.041054 -0.060286 0.122042
					CHANNELS 3 Zrotation Yrotation Xrotation
					End Site
					{
						OFFSET 0.000000 0.000000 0.000000
					}
				}
			}
		}
	}
	JOINT rhip
	{
		OFFSET -0.060310 -0.090513 -0.013543
		CHANNELS 3 Zrotation Yrotation Xrotation
		JOINT rknee
		{
			OFFSET -0.043257 -0.383688 -0.004843
			CHANNELS 3 Zrotation Yrotation Xrotation
			JOINT rankle
			{
				OFFSET 0.019056 -0.420046 -0.034562
				CHANNELS 3 Zrotation Yrotation Xrotation
				JOINT rtoe
				{
					OFFSET -0.034840 -0.062106 0.130323
					CHANNELS 3 Zrotation Yrotation Xrotation
					End Site
					{
						OFFSET 0.000000 0.000000 0.000000
					}
				}
			}
		}
	}
	JOINT lowerback
	{
		OFFSET 0.004439 0.124404 -0.038385
		CHANNELS 3 Zrotation Yrotation Xrotation
		JOINT upperback
		{
			OFFSET 0.004488 0.137956 0.026820
			CHANNELS 3 Zrotation Yrotation Xrotation
			JOINT chest
			{
				OFFSET -0.002265 0.056032 0.002855
				CHANNELS 3 Zrotation Yrotation Xrotation
				JOINT lowerneck
				{
					OFFSET -0.013390 0.211636 -0.033468
					CHANNELS 3 Zrotation Yrotation Xrotation
					JOINT upperneck
					{
						OFFSET 0.010113 0.088937 0.050410
						CHANNELS 3 Zrotation Yrotation Xrotation
						End Site
						{
							OFFSET 0.000000 0.000000 0.000000
						}
					}
				}
				JOINT lclavicle
				{
					OFFSET 0.071702 0.114000 -0.018898
					CHANNELS 3 Zrotation Yrotation Xrotation
					JOINT lshoulder
					{
						OFFSET 0.122921 0.045205 -0.019046
						CHANNELS 3 Zrotation Yrotation Xrotation
						JOINT lelbow
						{
							OFFSET 0.255332 -0.015649 -0.022946
							CHANNELS 3 Zrotation Yrotation Xrotation
							JOINT lwrist
							{
								OFFSET 0.265709 0.012698 -0.007375
								CHANNELS 3 Zrotation Yrotation Xrotation
								End Site
								{
									OFFSET 0.000000 0.000000 0.000000
								}
							}
						}
					}
				}
				JOINT rclavicle
				{
					OFFSET -0.082954 0.112472 -0.023707
					CHANNELS 3 Zrotation Yrotation Xrotation
					JOINT rshoulder
					{
						OFFSET -0.113228 0.046853 -0.008472
						CHANNELS 3 Zrotation Yrotation Xrotation
						JOINT relbow
						{
							OFFSET -0.260127 -0.014369 -0.031269
							CHANNELS 3 Zrotation Yrotation Xrotation
							JOINT rwrist
							{
								OFFSET -0.269108 0.006794 -0.006027
								CHANNELS 3 Zrotation Yrotation Xrotation
								End Site
								{
									OFFSET 0.000000 0.000000 0.000000
								}
							}
						}
					}
				}
			}
		}
	}
}
MOTION
Frames: 13
Frame Time: 0.033333
0.499380 0.974101 0.999253 -32.046739 3.581734 82.671558 -2.908315 0.101152 8.028195 -3.870851 -15.687567 5.139370 6.713114 8.674271 -16.106533 0.000000 -0.000000 0.000000 -0.521115 2.904017 -19.687593 -1.934327 -4.124263 36.501217 3.683224 -11.631121 -5.097309 0.000000 -0.000000 0.000000 -3.247522 -1.788468 12.450021 0.489011 -2.118264 4.331598 0.382743 -2.816360 2.735274 -0.818545 4.908362 2.595590 2.753562 3.513626 -6.362016 -21.856927 -5.352591 7.285082 -56.478875 -8.858978 9.707082 11.787370 -31.234594 7.352913 4.539924 -5.744696 -6.096625 19.737325 1.293690 4.271872 62.667759 -3.309563 10.623912 -19.588681 31.346770 -1.794083 7.687448 4.930172 -9.333691 
0.487295 0.961704 0.998687 -29.940298 3.819266 83.253200 -2.206623 0.010582 8.440519 -4.099214 -16.986914 5.666140 6.378463 8.138799 -17.277091 0.000000 -0.000000 0.000000 -0.146513 3.537573 -20.678677 -0.437698 -1.656090 29.463022 4.726069 -9.009147 -4.436173 0.000000 -0.000000 0.000000 -3.127748 -1.812537 11.877635 0.758042 -2.143120 4.644979 0.610555 -2.920034 2.791162 -0.412747 5.071307 2.529933 2.839183 3.358892 -6.469277 -21.719245 -5.316265 7.281963 -56.920311 -9.342374 10.383369 11.863482 -31.765213 7.491971 4.200478 -5.977256 -6.254672 19.721366 1.063340 4.507911 62.681367 -3.183908 10.544909 -19.819166 30.932362 -2.084173 7.566957 4.951948 -9.799815 
0.475164 0.948503 0.997990 -27.862154 4.137016 83.636183 -1.341843 -0.157513 8.713566 -4.551857 -18.082453 6.918244 6.031476 7.807128 -18.724238 0.000000 -0.000000 0.000000 0.257015 4.081536 -20.834429 1.122106 1.034472 22.738358 6.074389 -5.919673 -3.298943 0.000000 -0.000000 0.000000 -2.777411 -1.889589 11.576384 0.975327 -2.397193 4.941682 0.692364 -3.055231 2.699310 -0.070744 5.351481 2.405666 2.922378 3.303979 -6.629041 -21.870675 -5.102640 7.279111 -56.968735 -9.488593 10.763620 11.790787 -32.560734 7.310299 4.188279 -6.185140 -5.900882 20.010226 0.879013 4.536664 62.333428 -3.109620 10.518343 -19.723375 30.617958 -2.189217 7.123132 4.841994 -9.973071 
0.462303 0.934079 0.996987 -25.950378 4.385298 83.878999 -0.673508 -0.490365 9.398496 -4.729997 -19.047191 7.829242 5.628571 7.441906 -19.662551 0.000000 -0.000000 0.000000 0.709500 4.472598 -20.301731 1.974911 2.996131 16.959661 7.964993 -3.116667 -1.695068 0.000000 -0.000000 0.000000 -2.522096 -1.864290 11.185430 1.190229 -2.708079 5.477740 0.908896 -3.223872 2.450830 0.036848 5.621366 2.472707 2.882854 3.283686 -7.039517 -22.088184 -5.077596 7.411747 -57.101130 -9.501026 11.006128 12.004235 -32.982668 7.024417 3.688709 -6.485329 -5.310956 20.225822 0.752879 4.677083 61.833944 -2.986077 10.392422 -19.513843 30.607856 -1.979959 7.064298 4.692629 -9.982644 
0.449084 0.918362 0.995249 -23.907192 4.562951 84.111332 -0.131053 -0.918683 9.885435 -5.011023 -20.116523 9.433454 5.359267 7.343035 -20.745086 0.000000 -0.000000 0.000000 1.076514 4.339433 -19.466755 2.747623 3.661436 13.253667 9.296290 -2.014913 -0.377757 0.000000 -0.000000 0.000000 -2.250100 -1.797448 10.654895 1.416593 -3.120413 5.775002 1.050478 -3.457708 2.490685 0.056430 5.559865 2.447187 2.858792 3.301075 -7.233890 -21.869314 -5.073162 7.477762 -57.624311 -9.544132 11.331865 12.108916 -33.004031 7.075968 4.600325 -5.964220 -5.364415 20.329591 0.504784 4.480234 61.652915 -3.154809 10.167074 -19.421731 30.661624 -2.147031 6.718194 4.485326 -10.314503 
0.435013 0.901750 0.993378 -21.613814 4.606409 84.371288 0.305579 -1.532228 10.084825 -5.396264 -20.942604 11.687638 5.047890 7.090377 -21.877509 0.000000 -0.000000 0.000000 1.537356 4.144937 -18.384882 3.007688 3.314327 11.927949 10.001946 -1.521208 2.039215 0.000000 -0.000000 0.000000 -2.177512 -1.744585 10.057772 1.707612 -3.603203 6.016488 1.259153 -3.669903 2.438937 -0.094748 5.727177 2.262108 2.773508 3.005841 -7.133265 -21.959539 -5.061316 7.533189 -57.736047 -9.685758 11.333888 12.039316 -32.751507 7.336094 3.779007 -6.689756 -5.249295 20.112788 0.012900 4.296568 61.767603 -3.331248 10.007993 -19.389356 30.505627 -1.920264 6.835642 4.638195 -10.578362 
0.420477 0.883886 0.992031 -19.890145 4.537130 84.707182 0.556795 -2.007754 10.342246 -5.666442 -21.876602 13.911960 5.141393 7.352508 -22.538120 0.000000 -0.000000 0.000000 2.097622 4.344934 -17.714619 2.928893 3.296734 12.876213 7.212727 -2.189525 3.455399 0.000000 -0.000000 0.000000 -2.095083 -1.775334 9.084814 1.844077 -3.618554 6.260053 1.287930 -3.758200 2.532391 -0.191356 5.075666 2.496650 2.334043 3.337090 -7.641404 -22.212878 -4.894395 7.395522 -57.452134 -9.506885 11.226806 11.818507 -32.513370 7.885211 3.106811 -6.325363 -5.639127 20.233683 -0.239415 4.166232 61.634074 -3.620062 10.011733 -19.222806 30.311777 -1.589096 7.178944 4.622186 -10.879181 
0.406505 0.866374 0.992525 -18.388909 4.678731 84.864746 0.727873 -3.023666 10.316502 -6.019613 -22.648391 17.059838 4.593479 7.692258 -22.703115 0.000000 -0.000000 0.000000 2.625428 4.925977 -17.296114 2.507222 2.354402 14.494962 5.743944 -4.115431 3.186471 0.000000 -0.000000 0.000000 -1.745732 -1.855943 8.622507 1.923259 -3.498945 5.924283 1.091633 -3.556149 2.683487 -0.253647 5.331491 2.363709 2.672050 3.234375 -6.741207 -22.379991 -4.983232 7.612769 -57.473866 -9.439301 11.064303 11.939543 -31.988654 7.168000 4.569433 -6.287815 -5.982524 20.573472 -0.152880 4.178733 61.501129 -3.962083 9.996958 -18.777916 29.806227 -1.528992 6.139772 4.369200 -11.621814 
0.392900 0.847863 0.994916 -17.266346 4.745830 84.610443 0.741336 -3.877821 10.344351 -6.710503 -22.799020 20.997782 3.826906 8.001200 -22.005532 0.000000 -0.000000 0.000000 2.897609 5.260676 -15.693037 2.827836 2.310582 15.314146 5.185976 -4.793163 1.620967 0.000000 -0.000000 0.000000 -1.631734 -1.724684 8.274326 2.133524 -3.436011 6.045522 1.076010 -3.304433 2.902249 -0.301359 5.349776 2.156443 2.390555 3.472021 -6.372997 -22.229044 -4.723560 7.480554 -58.052423 -9.268205 11.123714 12.493218 -31.971977 6.821441 5.248312 -5.464240 -7.249873 20.487841 0.124168 4.103259 61.713242 -3.990571 10.233861 -18.945651 29.180968 -1.283476 6.297196 4.143996 -12.036299 
0.379445 0.829961 0.998543 -16.313572 4.724460 84.471164 0.905365 -4.515942 9.039286 -8.166281 -21.738324 26.771415 2.952630 7.387331 -19.955924 0.000000 -0.000000 0.000000 3.128071 4.638280 -13.601210 3.334852 2.405712 14.996959 4.696972 -4.566818 0.086483 0.000000 -0.000000 0.000000 -1.402918 -1.163714 8.005129 2.186115 -3.620896 6.070455 0.937170 -3.131093 2.906489 -0.369585 5.611221 1.980766 2.372402 3.503758 -5.908113 -22.053774 -4.408056 7.395817 -58.228048 -8.634457 10.789150 12.953995 -32.239011 6.683612 4.363178 -5.226812 -7.675866 20.439664 0.415372 4.237920 61.939351 -3.770750 10.112014 -18.736887 28.909957 -0.987479 6.221641 4.045273 -12.395871 
0.367115 0.812926 1.002141 -15.343189 4.761196 84.378642 1.399939 -4.850966 5.798706 -10.280311 -18.770288 35.188774 1.425281 5.681268 -15.827239 0.000000 -0.000000 0.000000 3.509864 3.415736 -11.183355 3.739542 2.351218 13.761282 3.750731 -3.895431 -1.096995 0.000000 -0.000000 0.000000 -0.949230 -0.191814 7.985054 2.238620 -3.851785 6.066584 0.711657 -2.913967 2.606393 -0.595955 5.617997 1.766449 2.647728 3.618378 -5.696366 -22.064748 -4.404317 7.370860 -57.993831 -8.002555 10.547921 12.624328 -32.574280 7.066157 4.289047 -5.094247 -8.019781 20.551842 0.272058 4.364402 61.903647 -3.794029 9.762366 -18.547683 29.639743 -0.210230 6.194466 4.077459 -12.409173 
0.355717 0.796871 1.004349 -14.361643 4.592281 84.036067 2.288541 -4.784296 1.476458 -12.636535 -14.469985 44.326855 -0.622106 3.421584 -9.602843 0.000000 -0.000000 0.000000 3.711685 2.386235 -8.630730 3.932004 1.888189 12.597475 2.274744 -3.123728 -2.384380 0.000000 -0.000000 0.000000 -0.721569 0.812418 8.450940 2.256922 -4.141972 6.042049 0.412256 -2.588911 2.233430 -0.932194 5.597420 1.619731 3.122803 3.758670 -5.622352 -22.104249 -4.477076 7.318922 -57.546013 -7.379268 10.289351 12.354052 -33.091881 7.643914 4.208844 -5.107731 -8.214293 20.702552 0.357648 4.732194 61.718397 -3.624349 9.426548 -18.287699 30.724622 0.592980 5.885181 4.121077 -12.831546 
0.345382 0.781803 1.004445 -13.372719 4.391156 83.756961 3.063236 -4.513525 -3.446380 -13.865595 -10.364516 52.769158 -1.322372 2.629787 -5.863819 0.000000 -0.000000 0.000000 3.775802 1.584226 -6.586604 4.231451 1.744940 12.012943 0.952374 -2.858400 -3.973360 0.000000 -0.000000 0.000000 -0.651467 1.764864 9.060394 2.303108 -4.301478 5.803400 0.194492 -2.205165 2.048554 -1.083739 5.446723 1.158133 3.453671 3.738298 -5.357750 -22.415514 -4.394562 7.188893 -56.895340 -6.875585 9.986981 12.100516 -33.762938 8.089869 4.337015 -4.914953 -8.122047 20.860908 0.705005 4.797980 61.341854 -3.528552 9.276879 -17.971500 31.679461 0.978233 5.173111 4.137843 -13.533945 
